<svg xmlns="http://www.w3.org/2000/svg"  viewBox="0 0 64 64" width="64px" height="64px" baseProfile="basic"><linearGradient id="XsTRcLoXx-vG_AiVGAoRha" x1="32" x2="32" y1="10.06" y2="39.393" gradientUnits="userSpaceOnUse"><stop offset="0" stop-color="#e6abff"/><stop offset="1" stop-color="#6dc7ff"/></linearGradient><polygon fill="url(#XsTRcLoXx-vG_AiVGAoRha)" points="39.004,10.06 32,22.06 24.996,10.06 14.879,10.06 32,39.393 49.121,10.06"/><linearGradient id="XsTRcLoXx-vG_AiVGAoRhb" x1="32" x2="32" y1="59.06" y2="9.06" gradientUnits="userSpaceOnUse"><stop offset="0" stop-color="#1a6dff"/><stop offset="1" stop-color="#c822ff"/></linearGradient><path fill="url(#XsTRcLoXx-vG_AiVGAoRhb)" d="M32,59.06c-0.355,0-0.685-0.188-0.863-0.496l-28.018-48c-0.181-0.31-0.183-0.691-0.004-1.002	S3.624,9.06,3.982,9.06h21.014c0.355,0,0.685,0.188,0.863,0.496L32,20.076l6.141-10.521c0.179-0.308,0.508-0.496,0.863-0.496h21.014	c0.358,0,0.688,0.191,0.867,0.502s0.177,0.692-0.004,1.002l-28.018,48C32.685,58.871,32.355,59.06,32,59.06z M5.724,11.06L32,56.076	L58.276,11.06H39.578l-6.715,11.504c-0.357,0.615-1.369,0.615-1.727,0L24.422,11.06H5.724z"/></svg>